<svg width="73" height="73" viewBox="0 0 73 73" fill="none" xmlns="http://www.w3.org/2000/svg">
<path d="M26.644 20.0157C18.9325 31.5551 9.28164 47.5358 24.9265 56.3649C34.7445 61.9056 46.3721 58.4805 54.7695 50.5821C73.1361 33.3069 74.4678 7.11935 48.758 2.25412C28.757 -1.53079 -8.69121 37.8235 12.9034 62.9738C22.1504 73.7436 36.5083 72.8987 46.611 65.0391C55.0595 58.4665 69.8432 41.1748 67.3294 26.4869C62.3243 -2.75774 29.1051 18.2171 20.3104 31.1683C14.3997 39.8726 16.9115 49.7426 24.0677 56.0895C38.1339 68.565 52.6738 54.8988 61.6399 40.3933C83.742 4.63585 46.9388 2.54593 27.9322 15.3343C19.8256 20.7888 10.1352 28.3344 3.67132 36.8134C-1.78692 43.9733 7.56234 45.7284 11.1858 47.2776" stroke="white" stroke-width="3" stroke-linecap="round"/>
<path d="M37.0053 42.9051C37.6186 40.9318 37.9653 39.1985 38.0453 37.7051C38.2853 37.5718 38.712 36.8518 39.3253 35.5451C39.4053 35.3585 39.5386 35.0785 39.7253 34.7051C39.912 34.3051 40.0853 33.9851 40.2453 33.7451C40.272 33.6918 40.5386 33.3451 41.0453 32.7051C41.5253 32.1451 41.8853 31.6518 42.1253 31.2251C42.3653 30.7718 42.4853 30.2251 42.4853 29.5851V29.3451C42.4853 29.1318 42.4453 28.9718 42.3653 28.8651C42.312 28.7318 42.1786 28.6385 41.9653 28.5851L42.2453 28.3051C42.192 28.3051 42.0853 28.2385 41.9253 28.1051C41.792 27.9718 41.7253 27.8785 41.7253 27.8251C41.192 27.1051 40.3786 26.5585 39.2853 26.1851C38.2186 25.7851 37.3786 25.5851 36.7653 25.5851L34.0453 27.3451L33.8053 27.8251C33.6186 27.5318 33.3253 27.2918 32.9253 27.1051C32.632 26.9185 32.4053 26.7318 32.2453 26.5451C32.112 26.3585 32.0453 26.0651 32.0453 25.6651C32.0453 25.0251 32.4453 24.4785 33.2453 24.0251C34.0453 23.5718 34.952 23.2385 35.9653 23.0251C37.0053 22.7851 37.8186 22.6651 38.4053 22.6651C40.6186 22.6651 42.4586 23.2251 43.9253 24.3451C45.4186 25.4385 46.1653 27.0651 46.1653 29.2251C46.1653 30.1051 45.8986 31.2518 45.3653 32.6651C44.8586 34.0518 44.3786 34.8251 43.9253 34.9851C43.312 35.7318 42.432 37.0251 41.2853 38.8651C40.8586 39.5851 40.4186 40.2651 39.9653 40.9051C40.0186 41.0118 40.0453 41.1585 40.0453 41.3451C40.0453 41.6385 39.9386 41.8251 39.7253 41.9051C39.9386 42.0651 40.072 42.2918 40.1253 42.5851C40.2053 42.8785 40.2453 43.0251 40.2453 43.0251C40.2453 43.4518 39.6053 43.6651 38.3253 43.6651C37.952 43.6651 37.6586 43.6251 37.4453 43.5451C37.232 43.4385 37.0853 43.2251 37.0053 42.9051ZM33.0853 25.5851C33.0853 25.9051 33.2453 26.1585 33.5653 26.3451C33.6186 26.3185 33.6586 26.2918 33.6853 26.2651C33.7386 26.2118 33.7786 26.1718 33.8053 26.1451C34.1253 25.5318 34.712 25.0785 35.5653 24.7851C36.4186 24.4918 37.352 24.3451 38.3653 24.3451C38.792 24.3451 39.0853 24.3585 39.2453 24.3851C39.6453 24.1985 39.8853 24.0518 39.9653 23.9451L38.2453 23.8651C37.632 23.8651 37.072 23.9451 36.5653 24.1051C36.0853 24.2385 35.472 24.4518 34.7253 24.7451C34.2453 24.9585 33.6986 25.1718 33.0853 25.3851V25.5851ZM40.4853 24.1451C39.9786 24.3051 39.7253 24.5851 39.7253 24.9851C40.2586 24.9851 40.5253 24.7851 40.5253 24.3851L40.4853 24.1451ZM41.4453 24.1451C41.152 24.1451 40.912 24.3185 40.7253 24.6651C40.5386 25.0118 40.4453 25.3585 40.4453 25.7051C41.112 25.7051 41.952 25.4251 42.9653 24.8651C42.6453 24.3851 42.1386 24.1451 41.4453 24.1451ZM41.7253 34.3451C41.7253 34.4518 41.7653 34.5718 41.8453 34.7051C41.952 34.8385 42.0986 34.9451 42.2853 35.0251C42.4986 35.0251 42.7786 34.7851 43.1253 34.3051C43.472 33.8251 43.7386 33.3985 43.9253 33.0251C44.4853 31.9851 44.832 31.2251 44.9653 30.7451C45.0986 30.2651 45.1653 29.6651 45.1653 28.9451C45.1653 28.2785 45.0853 27.7451 44.9253 27.3451C44.792 26.9451 44.552 26.4785 44.2053 25.9451L43.7253 25.1451V24.8651C43.4053 24.9185 43.072 25.1318 42.7253 25.5051C42.4053 25.8785 42.2453 26.2118 42.2453 26.5051C42.2453 26.6651 42.3253 26.7851 42.4853 26.8651C42.6453 26.9451 42.832 26.9851 43.0453 26.9851C43.312 26.9851 43.6053 26.9451 43.9253 26.8651L43.1653 27.5851V27.7051C43.1653 27.7851 43.232 27.9051 43.3653 28.0651C43.4986 28.2251 43.6186 28.3051 43.7253 28.3051L43.9253 28.2651V28.8251L44.4453 28.5851C44.3653 28.6918 44.0586 29.3185 43.5253 30.4651C43.4453 30.6251 43.3786 30.7851 43.3253 30.9451C43.272 31.1051 43.2186 31.2118 43.1653 31.2651L43.4453 31.5451C43.0986 31.9451 42.712 32.5051 42.2853 33.2251C41.8586 33.9451 41.672 34.3185 41.7253 34.3451ZM42.0853 25.5851C41.8986 25.5851 41.7253 25.6385 41.5653 25.7451C41.432 25.8518 41.3653 25.9985 41.3653 26.1851C41.6853 26.1851 41.9786 25.9851 42.2453 25.5851H42.0853ZM41.4853 35.7851C41.0586 35.7851 40.752 35.8518 40.5653 35.9851C40.4053 36.1185 40.2586 36.3185 40.1253 36.5851C39.992 36.8251 39.8586 37.0385 39.7253 37.2251L40.1253 37.2651C40.5253 37.2651 40.9253 37.1451 41.3253 36.9051C41.752 36.6385 41.9653 36.2918 41.9653 35.8651C41.9653 35.5718 41.8453 35.3451 41.6053 35.1851C41.392 35.0251 41.1253 34.9451 40.8053 34.9451C40.8053 35.1585 40.8586 35.3585 40.9653 35.5451C41.0986 35.7051 41.272 35.7851 41.4853 35.7851ZM40.7253 37.4251C40.2186 37.5851 39.872 37.7185 39.6853 37.8251C39.5253 37.9318 39.4053 38.1185 39.3253 38.3851C39.272 38.6251 39.2453 39.0518 39.2453 39.6651C39.2986 39.6651 39.5253 39.3985 39.9253 38.8651C40.3253 38.3051 40.592 37.9185 40.7253 37.7051V37.4251ZM36.2853 47.5851C36.2853 47.3985 36.992 47.3051 38.4053 47.3051C39.1253 47.3051 39.5786 47.3985 39.7653 47.5851C39.952 47.7718 40.072 48.0518 40.1253 48.4251C40.1786 48.7985 40.2186 49.0785 40.2453 49.2651C40.2453 49.3985 40.2986 49.6918 40.4053 50.1451C40.512 50.5985 40.5653 50.9851 40.5653 51.3051C40.2453 51.3051 39.8186 51.2518 39.2853 51.1451C38.752 51.0651 38.3786 51.0118 38.1653 50.9851C37.3653 50.8251 36.8986 50.7451 36.7653 50.7451L36.2853 50.3051V47.5851ZM39.4053 49.8251C39.4053 49.5318 39.2986 49.2518 39.0853 48.9851C38.8986 48.6918 38.672 48.5451 38.4053 48.5451C38.272 48.5451 38.0853 48.5985 37.8453 48.7051C37.632 48.8118 37.4453 48.8651 37.2853 48.8651V49.5451H38.0453V49.8251H39.4053Z" fill="white"/>
</svg>
