<svg width="212" height="182" viewBox="0 0 212 182" fill="none" xmlns="http://www.w3.org/2000/svg">
<path d="M139.164 44.2395C97.5698 31.9367 49.8783 49.5716 20.3321 73.2542C6.51519 84.3291 4.25116 104.143 22.1555 115.777C53.0402 135.844 108.026 127.52 140.02 121.32C156.728 118.081 190.509 112.618 197.687 96.1479C204.429 80.6793 191.895 68.141 176.638 61.0271C152.873 49.946 127.466 47.276 102.37 50.0793C76.9076 52.9236 41.0039 55.5784 23.9549 74.291C14.008 85.2084 23.0444 100.705 35.5062 107.888C56.8376 120.183 84.6661 120.332 108.139 120.982C129.009 121.56 230.467 114.027 196.598 73.4455C170.385 42.0376 103.266 53.6655 72.6542 63.4482C47.6879 71.4268 -0.199242 96.1657 38.4288 119.139" stroke="white" stroke-width="3" stroke-linecap="round"/>
<path d="M85.2871 68.3594L135.288 89.4157L86.6961 113.268L85.2871 68.3594Z" stroke="white" stroke-width="3"/>
</svg>
